<?xml version="1.0" encoding="UTF-8" standalone="no"?>
<svg
   xmlns:dc="http://purl.org/dc/elements/1.1/"
   xmlns:cc="http://creativecommons.org/ns#"
   xmlns:rdf="http://www.w3.org/1999/02/22-rdf-syntax-ns#"
   xmlns:svg="http://www.w3.org/2000/svg"
   xmlns="http://www.w3.org/2000/svg"
   xmlns:sodipodi="http://sodipodi.sourceforge.net/DTD/sodipodi-0.dtd"
   xmlns:inkscape="http://www.inkscape.org/namespaces/inkscape"
   id="Layer_1"
   style="enable-background:new 0 0 512 512;"
   version="1.1"
   viewBox="0 0 512 512"
   xml:space="preserve"
   sodipodi:docname="acesso_fonte.svg"
   inkscape:version="0.92.4 (5da689c313, 2019-01-14)"><metadata
     id="metadata845"><rdf:RDF><cc:Work
         rdf:about=""><dc:format>image/svg+xml</dc:format><dc:type
           rdf:resource="http://purl.org/dc/dcmitype/StillImage" /><dc:title></dc:title></cc:Work></rdf:RDF></metadata><defs
     id="defs843" /><sodipodi:namedview
     pagecolor="#ffffff"
     bordercolor="#666666"
     borderopacity="1"
     objecttolerance="10"
     gridtolerance="10"
     guidetolerance="10"
     inkscape:pageopacity="0"
     inkscape:pageshadow="2"
     inkscape:window-width="1920"
     inkscape:window-height="1017"
     id="namedview841"
     showgrid="false"
     inkscape:zoom="1"
     inkscape:cx="-146.10263"
     inkscape:cy="223.33827"
     inkscape:window-x="-8"
     inkscape:window-y="-8"
     inkscape:window-maximized="1"
     inkscape:current-layer="XMLID_26_" /><style
     type="text/css"
     id="style831">
	.st0{fill:#11B24C;}
</style><g
     id="XMLID_26_"
     style="fill:#808080;fill-opacity:1"><g
       id="g4852"
       transform="matrix(1.1737089,0,0,1.1737089,-44.469478,-44.469478)"
       style="fill:#228b22;fill-opacity:1"><g
         id="_x32_0-Search"
         style="fill:#228b22;fill-opacity:1" /><g
         id="_x31_9-Web_Page"
         style="fill:#228b22;fill-opacity:1" /><g
         id="_x31_8-Wifi"
         style="fill:#228b22;fill-opacity:1" /><g
         id="_x31_7-Hotspot"
         style="fill:#228b22;fill-opacity:1" /><g
         id="_x31_6-Satelite"
         style="fill:#228b22;fill-opacity:1" /><g
         id="_x31_5-Receiver"
         style="fill:#228b22;fill-opacity:1" /><g
         id="_x31_4-Receiver"
         style="fill:#228b22;fill-opacity:1" /><g
         id="_x31_3-Receiver"
         style="fill:#228b22;fill-opacity:1" /><g
         id="_x31_2-Ethernet"
         style="fill:#228b22;fill-opacity:1" /><g
         id="_x31_1-Code"
         style="fill:#228b22;fill-opacity:1" /><g
         id="_x31_0-Homegroup"
         style="fill:#228b22;fill-opacity:1" /><g
         id="_x30_9-Sharing_Option"
         style="fill:#228b22;fill-opacity:1" /><g
         id="_x30_8-Data"
         style="fill:#228b22;fill-opacity:1" /><g
         id="_x30_7-Connectivity"
         style="fill:#228b22;fill-opacity:1" /><g
         id="_x30_6-Computer"
         style="fill:#228b22;fill-opacity:1" /><g
         id="_x30_5-Laptop"
         style="fill:#228b22;fill-opacity:1" /><g
         id="_x30_4-Mobile"
         style="fill:#228b22;fill-opacity:1" /><g
         id="_x30_3-Network"
         style="fill:#228b22;fill-opacity:1" /><g
         id="_x30_2-Click"
         style="fill:#228b22;fill-opacity:1"><g
           id="g4848"
           style="fill:#228b22;fill-opacity:1"><path
             id="path4844"
             style="fill:#228b22;fill-opacity:1"
             d="m 356.392,413.688 c -21.176,13.527 -44.648,22.527 -68.988,26.661 3.705,-4.633 7.255,-9.364 10.655,-14.182 1.41,-1.998 1.13,-4.734 -0.689,-6.367 -4.138,-3.713 -6.556,-7.746 -9.065,-12.713 -1.657,-3.279 -6.239,-3.585 -8.291,-0.537 -3.482,5.173 -7.15,10.241 -11.014,15.186 v -46.393 c 0,-3.04 -0.681,-6.042 -1.993,-8.785 l -15.554,-32.52 C 249.411,329.769 243,331.224 243,335.955 v 8.769 h -41.968 c -8.386,-24.162 -13.333,-49.602 -14.564,-75.725 h 28.944 c 1.818,0 3.082,-1.796 2.477,-3.51 -2.227,-6.305 -2.572,-12.99 -1.147,-19.304 0.369,-1.637 -0.892,-3.187 -2.57,-3.187 h -27.703 c 1.231,-26.123 6.178,-51.563 14.564,-75.725 H 243 v 47.147 c 0,2.705 2.329,4.806 5.023,4.563 5.217,-0.471 9.974,0.315 14.814,2.108 2.989,1.107 6.163,-1.118 6.163,-4.305 v -49.513 h 41.968 c 8.386,24.162 13.333,49.602 14.564,75.725 h -5.776 c -3.529,0 -4.684,4.737 -1.55,6.361 L 348.77,265.2 c 4.816,2.496 10.16,3.799 15.584,3.799 h 78.187 c -1.721,24.939 -8.359,48.542 -18.94,69.859 -2.761,7.286 -6.454,11.048 -12.523,16.811 -2.506,2.379 -2.561,6.36 -0.118,8.803 l 11.868,11.868 c 2.711,2.711 7.241,2.322 9.398,-0.847 C 456.223,340.226 469,298.844 469,256 469,138.547 373.414,43.004 256.007,43 c -0.005,0 -0.009,0 -0.014,0 C 138.515,43.004 43,138.62 43,256 c 0,117.584 95.719,213 213,213 43.441,0 83.88,-13.079 117.6,-35.497 2.295,-1.526 2.623,-4.771 0.674,-6.72 l -12.487,-12.487 c -1.436,-1.437 -3.683,-1.701 -5.395,-0.608 z m 64.183,-246.413 c 12.35,22.817 20.085,48.478 21.965,75.725 h -90.993 c -1.117,-26.012 -5.586,-51.417 -13.193,-75.725 z m -17.006,-26 H 328.85 C 318.4,116.426 304.499,93.024 287.404,71.651 c 46.972,7.977 88.034,33.522 116.165,69.624 z M 269,90.264 c 12.422,15.898 22.92,33 31.39,51.011 H 269 Z m -26,51.011 H 211.61 C 220.08,123.263 230.578,106.162 243,90.264 Z M 224.595,71.651 C 207.5,93.025 193.6,116.427 183.15,141.275 h -74.718 c 28.13,-36.102 69.192,-61.647 116.163,-69.624 z m -133.17,95.624 h 82.22 C 166.038,191.583 161.57,216.988 160.452,243 H 69.459 c 1.881,-27.247 9.615,-52.908 21.966,-75.725 z m 0,177.45 C 79.074,321.908 71.34,296.247 69.459,269 h 90.993 c 1.117,26.012 5.586,51.417 13.193,75.725 z m 17.006,26 h 74.718 c 10.45,24.849 24.351,48.251 41.446,69.624 -46.971,-7.977 -88.033,-33.522 -116.164,-69.624 z M 243,421.736 c -12.422,-15.898 -22.92,-33 -31.39,-51.011 H 243 Z"
             inkscape:connector-curvature="0" /><path
             id="path4846"
             style="fill:#228b22;fill-opacity:1"
             d="m 433.716,436.728 c 5.858,-5.858 5.858,-15.355 0,-21.213 l -55.76,-55.76 23.349,-22.496 c 3.48,-3.353 5.132,-8.177 4.437,-12.959 -0.695,-4.782 -3.651,-8.937 -7.942,-11.16 l -140,-72.56 c -5.768,-2.991 -12.805,-1.926 -17.432,2.634 -4.627,4.56 -5.792,11.581 -2.887,17.391 l 70.001,140 c 2.134,4.269 6.172,7.267 10.876,8.075 0.847,0.146 1.696,0.217 2.541,0.217 3.848,0 7.588,-1.482 10.407,-4.198 l 25.043,-24.127 56.155,56.155 c 2.929,2.929 6.768,4.394 10.606,4.394 3.838,0 7.677,-1.464 10.606,-4.393 z m -108.528,-67.792 -40.251,-80.502 80.502,41.723 z"
             inkscape:connector-curvature="0" /></g></g><g
         id="_x30_1-Website"
         style="fill:#228b22;fill-opacity:1" /></g></g></svg>