<?xml version="1.0" encoding="UTF-8" standalone="no"?>
<svg
   xmlns:dc="http://purl.org/dc/elements/1.1/"
   xmlns:cc="http://creativecommons.org/ns#"
   xmlns:rdf="http://www.w3.org/1999/02/22-rdf-syntax-ns#"
   xmlns:svg="http://www.w3.org/2000/svg"
   xmlns="http://www.w3.org/2000/svg"
   xmlns:sodipodi="http://sodipodi.sourceforge.net/DTD/sodipodi-0.dtd"
   xmlns:inkscape="http://www.inkscape.org/namespaces/inkscape"
   id="Layer_1"
   version="1.1"
   viewBox="0 0 48 48"
   xml:space="preserve"
   sodipodi:docname="doi.svg"
   inkscape:version="0.92.4 (5da689c313, 2019-01-14)"
   width="48"
   height="48"><metadata
     id="metadata845"><rdf:RDF><cc:Work
         rdf:about=""><dc:format>image/svg+xml</dc:format><dc:type
           rdf:resource="http://purl.org/dc/dcmitype/StillImage" /><dc:title></dc:title></cc:Work></rdf:RDF></metadata><defs
     id="defs843" /><sodipodi:namedview
     pagecolor="#ffffff"
     bordercolor="#666666"
     borderopacity="1"
     objecttolerance="10"
     gridtolerance="10"
     guidetolerance="10"
     inkscape:pageopacity="0"
     inkscape:pageshadow="2"
     inkscape:window-width="1920"
     inkscape:window-height="1017"
     id="namedview841"
     showgrid="false"
     inkscape:zoom="1"
     inkscape:cx="14.423656"
     inkscape:cy="286.41114"
     inkscape:window-x="-8"
     inkscape:window-y="-8"
     inkscape:window-maximized="1"
     inkscape:current-layer="g5130"
     showguides="true"
     inkscape:guide-bbox="true" /><style
     type="text/css"
     id="style831">
	.st0{fill:#11B24C;}
</style><g
     id="XMLID_26_"
     style="fill:#808080;fill-opacity:1"
     transform="translate(2.4999999,-495)"><g
       id="g5130"
       transform="translate(-7.8361604,31.792541)"
       style="fill:#228b22;fill-opacity:1"><g
         id="g845"
         transform="translate(-5.4999996,5.5847758)"><g
           transform="matrix(0.09580838,0,0,0.09580838,9.7979659,457.17167)"
           id="g836"><path
             inkscape:connector-curvature="0"
             id="path4904"
             d="M 261.33616,5.3012081 A 250,249.9064 0 0 0 11.336161,255.20746 250,249.9064 0 0 0 261.33616,505.11371 a 250,249.9064 0 0 0 250,-249.90625 250,249.9064 0 0 0 -250,-249.9062519 z m 0,33.5351559 A 218.94424,216.37206 0 0 1 480.27952,255.20746 218.94424,216.37206 0 0 1 261.33616,471.57855 218.94424,216.37206 0 0 1 42.392802,255.20746 218.94424,216.37206 0 0 1 261.33616,38.836364 Z"
             style="fill:#228b22;fill-opacity:1;stroke:#ffffff" /><g
             transform="matrix(0.29873099,0,0,0.29873099,163.60037,183.25296)"
             style="fill:#228b22;fill-opacity:1;stroke:none"
             id="g5122"><rect
               style="fill:#228b22;fill-opacity:1;stroke:none"
               id="rect5079"
               width="117"
               height="348"
               x="690"
               y="159.5" /><ellipse
               style="fill:#228b22;fill-opacity:1;stroke:none"
               id="path5081"
               cx="748.75"
               cy="29"
               rx="65.75"
               ry="65.5" /><path
               inkscape:connector-curvature="0"
               style="fill:#228b22;fill-opacity:1;stroke:none"
               d="M 456.54688,146.7793 A 198.453,186.85297 0 0 0 258.09375,333.63281 198.453,186.85297 0 0 0 456.54688,520.48438 198.453,186.85297 0 0 0 655,333.63281 198.453,186.85297 0 0 0 456.54688,146.7793 Z m -0.10938,106.77343 a 76.721085,80.256622 0 0 1 76.7207,80.25586 76.721085,80.256622 0 0 1 -76.7207,80.25782 76.721085,80.256622 0 0 1 -76.7207,-80.25782 76.721085,80.256622 0 0 1 76.7207,-80.25586 z"
               id="path5083" /><path
               inkscape:connector-curvature="0"
               style="fill:#228b22;fill-opacity:1;stroke:none;stroke-width:1px;stroke-linecap:butt;stroke-linejoin:miter;stroke-opacity:1"
               d="m 125.86523,-38.75 v 234.67383 c 0,0 -38.492865,-43.42383 -104.36523,-43.42383 -64.474448,-4.18934 -181.66016,49.78828 -181.66016,188.02734 C -160.16016,479.21646 -49.851028,516.5 7,516.5 c 51.854204,0 98.29066,-32.56015 118.86523,-52.58398 V 507.5 H 235 V -38.75 Z M 43.132812,247.18945 a 80.256615,85.913475 0 0 1 80.257808,85.91211 80.256615,85.913475 0 0 1 -80.257808,85.91406 80.256615,85.913475 0 0 1 -80.255859,-85.91406 80.256615,85.913475 0 0 1 80.255859,-85.91211 z"
               id="path5113" /></g></g></g></g></g></svg>