<?xml version="1.0" encoding="UTF-8" standalone="no"?>
<svg
   xmlns:dc="http://purl.org/dc/elements/1.1/"
   xmlns:cc="http://creativecommons.org/ns#"
   xmlns:rdf="http://www.w3.org/1999/02/22-rdf-syntax-ns#"
   xmlns:svg="http://www.w3.org/2000/svg"
   xmlns="http://www.w3.org/2000/svg"
   xmlns:sodipodi="http://sodipodi.sourceforge.net/DTD/sodipodi-0.dtd"
   xmlns:inkscape="http://www.inkscape.org/namespaces/inkscape"
   id="Layer_1"
   version="1.1"
   viewBox="0 0 48 48"
   xml:space="preserve"
   sodipodi:docname="embargo.svg"
   inkscape:version="0.92.4 (5da689c313, 2019-01-14)"
   width="48"
   height="48"><metadata
     id="metadata845"><rdf:RDF><cc:Work
         rdf:about=""><dc:format>image/svg+xml</dc:format><dc:type
           rdf:resource="http://purl.org/dc/dcmitype/StillImage" /><dc:title></dc:title></cc:Work></rdf:RDF></metadata><defs
     id="defs843" /><sodipodi:namedview
     pagecolor="#ffffff"
     bordercolor="#666666"
     borderopacity="1"
     objecttolerance="10"
     gridtolerance="10"
     guidetolerance="10"
     inkscape:pageopacity="0"
     inkscape:pageshadow="2"
     inkscape:window-width="1920"
     inkscape:window-height="1017"
     id="namedview841"
     showgrid="false"
     inkscape:zoom="5.6568542"
     inkscape:cx="28.425239"
     inkscape:cy="9.0943322"
     inkscape:window-x="-8"
     inkscape:window-y="-8"
     inkscape:window-maximized="1"
     inkscape:current-layer="g849"
     showguides="true"
     inkscape:guide-bbox="true" /><style
     type="text/css"
     id="style831">
	.st0{fill:#11B24C;}
</style><g
     id="g4932"
     transform="matrix(0.46679448,0,0,0.46679448,253.60452,-192.10143)"
     style="fill:#333333;fill-opacity:1"><g
       id="D_-_45_x2C__timmer_x2C__stopwatch_x2C__watch_x2C__time"
       style="fill:#333333;fill-opacity:1"><g
         id="g849"><g
           id="g845"
           style="fill:#cd0000;fill-opacity:1"
           transform="matrix(0.23538361,0,0,0.23538361,-552.13317,402.68961)"><path
             style="fill:#cd0000;fill-opacity:1"
             inkscape:connector-curvature="0"
             d="m 231.409,112.461 c 0.327,-0.043 0.654,-0.089 0.98,-0.13 7.829,-0.991 15.739,-1.496 23.61,-1.496 7.872,0 15.782,0.505 23.613,1.496 0.324,0.041 0.648,0.086 0.973,0.129 0.572,0.075 1.146,0.146 1.717,0.227 V 78.889 h -52.605 v 33.799 c 0.571,-0.081 1.141,-0.151 1.712,-0.227 z"
             id="path4901" /><path
             style="fill:#cd0000;fill-opacity:1"
             inkscape:connector-curvature="0"
             d="m 364.746,145.835 c 0.898,0.646 1.791,1.3 2.678,1.963 0.326,0.244 0.653,0.486 0.979,0.732 1.146,0.868 2.285,1.745 3.412,2.639 0.033,0.026 0.066,0.054 0.1,0.081 1.093,0.869 2.175,1.754 3.249,2.648 0.32,0.267 0.639,0.536 0.958,0.805 0.847,0.714 1.686,1.435 2.521,2.164 0.28,0.246 0.563,0.489 0.843,0.736 1.01,0.893 2.012,1.793 3.002,2.708 l 16.076,-20.733 -22.218,-17.226 -15.882,20.483 c 1.131,0.766 2.25,1.548 3.363,2.339 0.308,0.219 0.612,0.441 0.919,0.661 z"
             id="path4905" /><polygon
             style="fill:#cd0000;fill-opacity:1"
             points="323.62,69.518 323.62,37.571 188.38,37.571 188.38,69.518 225.012,69.518 286.988,69.518 "
             id="polygon4907" /><path
             style="fill:#cd0000;fill-opacity:1"
             inkscape:connector-curvature="0"
             d="m 379.742,170.625 v 0 c -8.737,-8.534 -18.361,-16.175 -28.605,-22.71 -19.894,-12.694 -41.743,-21.15 -64.941,-25.135 -19.891,-3.416 -40.5,-3.416 -60.39,0 -85.129,14.621 -146.917,88.025 -146.917,174.537 0,97.659 79.452,177.111 177.111,177.111 97.659,0 177.111,-79.452 177.111,-177.111 0,-48.084 -18.953,-93.077 -53.369,-126.692 z M 256,430.087 c -73.209,0 -132.77,-59.561 -132.77,-132.77 0,-73.209 59.561,-132.77 132.77,-132.77 73.209,0 132.77,59.561 132.77,132.77 0,73.209 -59.561,132.77 -132.77,132.77 z"
             id="path4909" /><ellipse
             ry="33.347454"
             rx="33.354069"
             cy="297.23135"
             cx="255.95973"
             id="path846"
             style="fill:#cd0000;fill-opacity:1;stroke:none;stroke-width:2.14227033;stroke-opacity:1" /><rect
             transform="matrix(-0.7071508,0.70706276,-0.70707716,-0.7071364,0,0)"
             rx="8.9375525"
             y="-401.09164"
             x="-88.369247"
             height="16.851528"
             width="82.936058"
             id="rect864"
             style="fill:#cd0000;fill-opacity:1;stroke:none;stroke-width:2.57355857;stroke-opacity:1" /></g></g></g><g
       id="Layer_1-2"
       style="fill:#333333;fill-opacity:1" /></g></svg>