<?xml version="1.0" encoding="UTF-8" standalone="no"?>
<svg
   xmlns:dc="http://purl.org/dc/elements/1.1/"
   xmlns:cc="http://creativecommons.org/ns#"
   xmlns:rdf="http://www.w3.org/1999/02/22-rdf-syntax-ns#"
   xmlns:svg="http://www.w3.org/2000/svg"
   xmlns="http://www.w3.org/2000/svg"
   xmlns:sodipodi="http://sodipodi.sourceforge.net/DTD/sodipodi-0.dtd"
   xmlns:inkscape="http://www.inkscape.org/namespaces/inkscape"
   height="48"
   version="1.1"
   viewBox="0 0 48 48"
   width="48"
   id="svg11"
   sodipodi:docname="exlcuir2.svg"
   inkscape:version="0.92.4 (5da689c313, 2019-01-14)">
  <metadata
     id="metadata15">
    <rdf:RDF>
      <cc:Work
         rdf:about="">
        <dc:format>image/svg+xml</dc:format>
        <dc:type
           rdf:resource="http://purl.org/dc/dcmitype/StillImage" />
        <dc:title></dc:title>
      </cc:Work>
    </rdf:RDF>
  </metadata>
  <sodipodi:namedview
     pagecolor="#ffffff"
     bordercolor="#666666"
     borderopacity="1"
     objecttolerance="10"
     gridtolerance="10"
     guidetolerance="10"
     inkscape:pageopacity="0"
     inkscape:pageshadow="2"
     inkscape:window-width="1920"
     inkscape:window-height="1017"
     id="namedview13"
     showgrid="false"
     inkscape:zoom="7.375"
     inkscape:cx="16"
     inkscape:cy="16"
     inkscape:window-x="-8"
     inkscape:window-y="-8"
     inkscape:window-maximized="1"
     inkscape:current-layer="svg11" />
  <desc
     id="desc4" />
  <defs
     id="defs6" />
  <g
     id="Page-1"
     style="fill:#cd0000;fill-opacity:1;fill-rule:evenodd;stroke:none;stroke-width:1"
     transform="matrix(1.7777778,0,0,1.7777778,-5.3333337,-5.3333337)">
    <g
       id="icon-27-trash-can"
       style="fill:#cd0000;fill-opacity:1">
      <path
         d="M 23,7 H 21 V 7 5.0048815 C 21,3.897616 20.104142,3 19.002608,3 H 13.997392 C 12.894263,3 12,3.8938998 12,5.0048815 V 7 H 10 6 V 8 H 8 V 26.993152 C 8,28.653788 9.3339615,30 11.000126,30 H 21.999874 C 23.656798,30 25,28.664009 25,26.993152 V 8 h 2 V 7 Z m -11,3 v 17 h 1 V 10 Z m 4,0 v 17 h 1 V 10 Z m 4,0 v 17 h 1 V 10 Z M 14.002929,4 C 13.449027,4 13,4.4426603 13,4.9989566 V 7 h 7 V 4.9989566 C 20,4.4472481 19.562119,4 18.997071,4 Z"
         id="trash-can"
         style="fill:#cd0000;fill-opacity:1"
         inkscape:connector-curvature="0" />
    </g>
  </g>
</svg>
