<?xml version="1.0" encoding="UTF-8" standalone="no"?>
<svg
   xmlns:dc="http://purl.org/dc/elements/1.1/"
   xmlns:cc="http://creativecommons.org/ns#"
   xmlns:rdf="http://www.w3.org/1999/02/22-rdf-syntax-ns#"
   xmlns:svg="http://www.w3.org/2000/svg"
   xmlns="http://www.w3.org/2000/svg"
   xmlns:sodipodi="http://sodipodi.sourceforge.net/DTD/sodipodi-0.dtd"
   xmlns:inkscape="http://www.inkscape.org/namespaces/inkscape"
   id="Layer_1"
   version="1.1"
   viewBox="0 0 48 48"
   xml:space="preserve"
   sodipodi:docname="pdf_aceito.svg"
   inkscape:version="0.92.4 (5da689c313, 2019-01-14)"
   width="48"
   height="48"><metadata
     id="metadata845"><rdf:RDF><cc:Work
         rdf:about=""><dc:format>image/svg+xml</dc:format><dc:type
           rdf:resource="http://purl.org/dc/dcmitype/StillImage" /><dc:title></dc:title></cc:Work></rdf:RDF></metadata><defs
     id="defs843" /><sodipodi:namedview
     pagecolor="#ffffff"
     bordercolor="#666666"
     borderopacity="1"
     objecttolerance="10"
     gridtolerance="10"
     guidetolerance="10"
     inkscape:pageopacity="0"
     inkscape:pageshadow="2"
     inkscape:window-width="1920"
     inkscape:window-height="1017"
     id="namedview841"
     showgrid="false"
     inkscape:zoom="1"
     inkscape:cx="34.27932"
     inkscape:cy="226.49844"
     inkscape:window-x="-8"
     inkscape:window-y="-8"
     inkscape:window-maximized="1"
     inkscape:current-layer="Layer_1" /><style
     type="text/css"
     id="style831">
	.st0{fill:#11B24C;}
</style><g
     id="g1408"
     transform="matrix(0.096,0,0,0.096,-0.576,-0.576)"><g
       id="g1398"><g
         id="XMLID_26_"
         style="fill:#1094ab;fill-opacity:1"><path
           class="st0"
           d="m 187.7,329 h -11.4 v 51.3 h 11.4 c 5.6,0 10.1,-1.9 13.4,-5.7 3.3,-3.8 5,-8.7 5,-14.6 v -10.7 c 0,-5.9 -1.7,-10.7 -5,-14.5 -3.3,-3.9 -7.8,-5.8 -13.4,-5.8 z"
           id="XMLID_156_"
           style="fill:#1094ab;fill-opacity:1"
           inkscape:connector-curvature="0" /><path
           class="st0"
           d="M 365.6,285.9 H 40.3 v 133.9 h 276.3 z m -221.7,71.3 c -4.4,4 -10.4,5.9 -18.1,5.9 h -15.1 v 26.5 H 99 v -70 h 26.8 c 7.7,0 13.8,2 18.1,6 4.4,4 6.6,9.2 6.6,15.7 0,6.7 -2.2,11.9 -6.6,15.9 z m 73.8,2.8 c 0,8.8 -2.8,15.9 -8.3,21.4 -5.6,5.5 -12.8,8.3 -21.7,8.3 h -23.1 v -70 h 23.1 c 8.9,0 16.1,2.8 21.7,8.3 5.6,5.5 8.3,12.7 8.3,21.4 z m 60.6,-31 h -33.1 v 21.4 h 28.2 v 9.4 h -28.2 v 29.9 h -11.7 v -70 h 44.8 z"
           id="XMLID_56_"
           style="fill:#1094ab;fill-opacity:1"
           inkscape:connector-curvature="0" /><path
           class="st0"
           d="m 125.8,329 h -15.1 v 24.7 h 15.1 c 4.3,0 7.6,-1.2 9.8,-3.5 2.2,-2.3 3.3,-5.2 3.3,-8.8 0,-3.6 -1.1,-6.5 -3.3,-8.9 -2.2,-2.3 -5.5,-3.5 -9.8,-3.5 z"
           id="XMLID_55_"
           style="fill:#1094ab;fill-opacity:1"
           inkscape:connector-curvature="0" /><path
           class="st0"
           d="M 352.9,6 V 6 H 107.4 c -7.3,0 -13.3,6 -13.3,13.3 v 256.8 h 26.6 V 32.6 h 232.2 v 92.2 h 92.2 V 479.4 H 120.7 V 429.6 H 94.1 v 63.1 c 0,7.3 6,13.3 13.3,13.3 h 351 c 7.3,0 13.3,-6 13.3,-13.3 V 124.8 Z"
           id="XMLID_29_"
           style="fill:#1094ab;fill-opacity:1"
           inkscape:connector-curvature="0" /><rect
           class="st0"
           height="19.6"
           id="XMLID_28_"
           width="253.39999"
           x="156.2"
           y="171.39999"
           style="fill:#1094ab;fill-opacity:1" /><rect
           class="st0"
           height="19.6"
           id="XMLID_27_"
           width="213.3"
           x="156.2"
           y="209.5"
           style="fill:#1094ab;fill-opacity:1" /></g></g></g></svg>