<?xml version="1.0" encoding="UTF-8" standalone="no"?>
<svg
   xmlns:dc="http://purl.org/dc/elements/1.1/"
   xmlns:cc="http://creativecommons.org/ns#"
   xmlns:rdf="http://www.w3.org/1999/02/22-rdf-syntax-ns#"
   xmlns:svg="http://www.w3.org/2000/svg"
   xmlns="http://www.w3.org/2000/svg"
   xmlns:sodipodi="http://sodipodi.sourceforge.net/DTD/sodipodi-0.dtd"
   xmlns:inkscape="http://www.inkscape.org/namespaces/inkscape"
   id="Layer_1"
   version="1.1"
   viewBox="0 0 48 48"
   xml:space="preserve"
   sodipodi:docname="pdf_submetido_embargado.svg"
   inkscape:version="0.92.4 (5da689c313, 2019-01-14)"
   width="48"
   height="48"><metadata
     id="metadata845"><rdf:RDF><cc:Work
         rdf:about=""><dc:format>image/svg+xml</dc:format><dc:type
           rdf:resource="http://purl.org/dc/dcmitype/StillImage" /><dc:title></dc:title></cc:Work></rdf:RDF></metadata><defs
     id="defs843" /><sodipodi:namedview
     pagecolor="#ffffff"
     bordercolor="#666666"
     borderopacity="1"
     objecttolerance="10"
     gridtolerance="10"
     guidetolerance="10"
     inkscape:pageopacity="0"
     inkscape:pageshadow="2"
     inkscape:window-width="1920"
     inkscape:window-height="1017"
     id="namedview841"
     showgrid="false"
     inkscape:zoom="2.8284271"
     inkscape:cx="24.176526"
     inkscape:cy="34.755108"
     inkscape:window-x="-8"
     inkscape:window-y="-8"
     inkscape:window-maximized="1"
     inkscape:current-layer="Layer_1" /><style
     type="text/css"
     id="style831">
	.st0{fill:#11B24C;}
</style><g
     id="g834"
     style="fill:#ff0000"><g
       transform="matrix(0.096,0,0,0.096,-0.576,-0.576)"
       style="fill:#ff0000;fill-opacity:1"
       id="XMLID_26_"><path
         inkscape:connector-curvature="0"
         style="fill:#ff0000;fill-opacity:1"
         id="XMLID_156_"
         d="m 187.7,329 h -11.4 v 51.3 h 11.4 c 5.6,0 10.1,-1.9 13.4,-5.7 3.3,-3.8 5,-8.7 5,-14.6 v -10.7 c 0,-5.9 -1.7,-10.7 -5,-14.5 -3.3,-3.9 -7.8,-5.8 -13.4,-5.8 z"
         class="st0" /><path
         inkscape:connector-curvature="0"
         style="fill:#ff0000;fill-opacity:1"
         id="XMLID_56_"
         d="M 365.6,285.9 H 40.3 v 133.9 h 276.3 z m -221.7,71.3 c -4.4,4 -10.4,5.9 -18.1,5.9 h -15.1 v 26.5 H 99 v -70 h 26.8 c 7.7,0 13.8,2 18.1,6 4.4,4 6.6,9.2 6.6,15.7 0,6.7 -2.2,11.9 -6.6,15.9 z m 73.8,2.8 c 0,8.8 -2.8,15.9 -8.3,21.4 -5.6,5.5 -12.8,8.3 -21.7,8.3 h -23.1 v -70 h 23.1 c 8.9,0 16.1,2.8 21.7,8.3 5.6,5.5 8.3,12.7 8.3,21.4 z m 60.6,-31 h -33.1 v 21.4 h 28.2 v 9.4 h -28.2 v 29.9 h -11.7 v -70 h 44.8 z"
         class="st0" /><path
         inkscape:connector-curvature="0"
         style="fill:#ff0000;fill-opacity:1"
         id="XMLID_55_"
         d="m 125.8,329 h -15.1 v 24.7 h 15.1 c 4.3,0 7.6,-1.2 9.8,-3.5 2.2,-2.3 3.3,-5.2 3.3,-8.8 0,-3.6 -1.1,-6.5 -3.3,-8.9 -2.2,-2.3 -5.5,-3.5 -9.8,-3.5 z"
         class="st0" /><path
         inkscape:connector-curvature="0"
         style="fill:#ff0000;fill-opacity:1"
         id="XMLID_29_"
         d="M 352.9,6 V 6 H 107.4 c -7.3,0 -13.3,6 -13.3,13.3 v 256.8 h 26.6 V 32.6 h 232.2 v 92.2 h 92.2 V 479.4 H 120.7 V 429.6 H 94.1 v 63.1 c 0,7.3 6,13.3 13.3,13.3 h 351 c 7.3,0 13.3,-6 13.3,-13.3 V 124.8 Z"
         class="st0" /><rect
         style="fill:#ff0000;fill-opacity:1"
         y="171.39999"
         x="156.2"
         width="253.39999"
         id="XMLID_28_"
         height="19.6"
         class="st0" /><rect
         style="fill:#ff0000;fill-opacity:1"
         y="209.5"
         x="156.2"
         width="213.3"
         id="XMLID_27_"
         height="19.6"
         class="st0" /></g></g><g
     transform="matrix(0.46679448,0,0,0.46679448,253.60429,-192.10189)"
     style="fill:#333333;fill-opacity:1"
     id="g7033"><path
       style="fill:#333333;fill-opacity:1;stroke-width:0.096"
       inkscape:connector-curvature="0"
       d="m -467.79162,492.68255 c -1.14547,0 -2.07725,0.93188 -2.07725,2.07735 0,1.14547 0.93187,2.07734 2.07725,2.07734 1.14538,0 2.07734,-0.93187 2.07734,-2.07734 0,-1.14547 -0.93187,-2.07735 -2.07734,-2.07735 z"
       id="path4899" /><ellipse
       ry="12.74416"
       rx="12.744367"
       cy="494.75378"
       cx="-467.7937"
       id="path865"
       style="fill:#ffffff;fill-opacity:1;stroke:none;stroke-width:0.20565794;stroke-opacity:1" /><g
       transform="matrix(0.096,0,0,0.096,-492.36762,466.21737)"
       style="fill:#cd0000;fill-opacity:1"
       id="g845"><path
         id="path4901"
         d="m 231.409,112.461 c 0.327,-0.043 0.654,-0.089 0.98,-0.13 7.829,-0.991 15.739,-1.496 23.61,-1.496 7.872,0 15.782,0.505 23.613,1.496 0.324,0.041 0.648,0.086 0.973,0.129 0.572,0.075 1.146,0.146 1.717,0.227 V 78.889 h -52.605 v 33.799 c 0.571,-0.081 1.141,-0.151 1.712,-0.227 z"
         inkscape:connector-curvature="0"
         style="fill:#cd0000;fill-opacity:1" /><path
         id="path4905"
         d="m 364.746,145.835 c 0.898,0.646 1.791,1.3 2.678,1.963 0.326,0.244 0.653,0.486 0.979,0.732 1.146,0.868 2.285,1.745 3.412,2.639 0.033,0.026 0.066,0.054 0.1,0.081 1.093,0.869 2.175,1.754 3.249,2.648 0.32,0.267 0.639,0.536 0.958,0.805 0.847,0.714 1.686,1.435 2.521,2.164 0.28,0.246 0.563,0.489 0.843,0.736 1.01,0.893 2.012,1.793 3.002,2.708 l 16.076,-20.733 -22.218,-17.226 -15.882,20.483 c 1.131,0.766 2.25,1.548 3.363,2.339 0.308,0.219 0.612,0.441 0.919,0.661 z"
         inkscape:connector-curvature="0"
         style="fill:#cd0000;fill-opacity:1" /><polygon
         id="polygon4907"
         points="323.62,69.518 323.62,37.571 188.38,37.571 188.38,69.518 225.012,69.518 286.988,69.518 "
         style="fill:#cd0000;fill-opacity:1" /><path
         id="path4909"
         d="m 379.742,170.625 v 0 c -8.737,-8.534 -18.361,-16.175 -28.605,-22.71 -19.894,-12.694 -41.743,-21.15 -64.941,-25.135 -19.891,-3.416 -40.5,-3.416 -60.39,0 -85.129,14.621 -146.917,88.025 -146.917,174.537 0,97.659 79.452,177.111 177.111,177.111 97.659,0 177.111,-79.452 177.111,-177.111 0,-48.084 -18.953,-93.077 -53.369,-126.692 z M 256,430.087 c -73.209,0 -132.77,-59.561 -132.77,-132.77 0,-73.209 59.561,-132.77 132.77,-132.77 73.209,0 132.77,59.561 132.77,132.77 0,73.209 -59.561,132.77 -132.77,132.77 z"
         inkscape:connector-curvature="0"
         style="fill:#cd0000;fill-opacity:1" /><ellipse
         style="fill:#cd0000;fill-opacity:1;stroke:none;stroke-width:2.14227033;stroke-opacity:1"
         id="path846"
         cx="255.95973"
         cy="297.23135"
         rx="33.354069"
         ry="33.347454" /><rect
         style="fill:#cd0000;fill-opacity:1;stroke:none;stroke-width:2.57355857;stroke-opacity:1"
         id="rect864"
         width="82.936058"
         height="16.851528"
         x="-88.369247"
         y="-401.09164"
         rx="8.9375525"
         transform="matrix(-0.7071508,0.70706276,-0.70707716,-0.7071364,0,0)" /></g></g></svg>