<?xml version="1.0" encoding="UTF-8" standalone="no"?>
<svg
   xmlns:dc="http://purl.org/dc/elements/1.1/"
   xmlns:cc="http://creativecommons.org/ns#"
   xmlns:rdf="http://www.w3.org/1999/02/22-rdf-syntax-ns#"
   xmlns:svg="http://www.w3.org/2000/svg"
   xmlns="http://www.w3.org/2000/svg"
   xmlns:sodipodi="http://sodipodi.sourceforge.net/DTD/sodipodi-0.dtd"
   xmlns:inkscape="http://www.inkscape.org/namespaces/inkscape"
   id="Layer_1"
   style="enable-background:new 0 0 512 512;"
   version="1.1"
   viewBox="0 0 512 512"
   xml:space="preserve"
   sodipodi:docname="pdf_embargado.svg"
   inkscape:version="0.92.4 (5da689c313, 2019-01-14)"><metadata
     id="metadata845"><rdf:RDF><cc:Work
         rdf:about=""><dc:format>image/svg+xml</dc:format><dc:type
           rdf:resource="http://purl.org/dc/dcmitype/StillImage" /><dc:title></dc:title></cc:Work></rdf:RDF></metadata><defs
     id="defs843" /><sodipodi:namedview
     pagecolor="#ffffff"
     bordercolor="#666666"
     borderopacity="1"
     objecttolerance="10"
     gridtolerance="10"
     guidetolerance="10"
     inkscape:pageopacity="0"
     inkscape:pageshadow="2"
     inkscape:window-width="1920"
     inkscape:window-height="1017"
     id="namedview841"
     showgrid="false"
     inkscape:zoom="0.70710678"
     inkscape:cx="-19.689609"
     inkscape:cy="192.26732"
     inkscape:window-x="-8"
     inkscape:window-y="-8"
     inkscape:window-maximized="1"
     inkscape:current-layer="D_-_45_x2C__timmer_x2C__stopwatch_x2C__watch_x2C__time" /><style
     type="text/css"
     id="style831">
	.st0{fill:#11B24C;}
</style><g
     id="XMLID_26_"
     style="fill:#808080;fill-opacity:1"><path
       class="st0"
       d="M187.7,329h-11.4v51.3h11.4c5.6,0,10.1-1.9,13.4-5.7c3.3-3.8,5-8.7,5-14.6v-10.7   c0-5.9-1.7-10.7-5-14.5C197.8,330.9,193.3,329,187.7,329z"
       id="XMLID_156_"
       style="fill:#808080;fill-opacity:1" /><path
       class="st0"
       d="M365.6,285.9H40.3v133.9h276.3L365.6,285.9z M143.9,357.2c-4.4,4-10.4,5.9-18.1,5.9h-15.1v26.5   H99v-70h26.8c7.7,0,13.8,2,18.1,6c4.4,4,6.6,9.2,6.6,15.7C150.5,348,148.3,353.2,143.9,357.2z M217.7,360c0,8.8-2.8,15.9-8.3,21.4   c-5.6,5.5-12.8,8.3-21.7,8.3h-23.1v-70h23.1c8.9,0,16.1,2.8,21.7,8.3c5.6,5.5,8.3,12.7,8.3,21.4V360z M278.3,329h-33.1v21.4h28.2   v9.4h-28.2v29.9h-11.7v-70h44.8V329z"
       id="XMLID_56_"
       style="fill:#808080;fill-opacity:1" /><path
       class="st0"
       d="M125.8,329h-15.1v24.7h15.1c4.3,0,7.6-1.2,9.8-3.5c2.2-2.3,3.3-5.2,3.3-8.8s-1.1-6.5-3.3-8.9   C133.4,330.2,130.1,329,125.8,329z"
       id="XMLID_55_"
       style="fill:#808080;fill-opacity:1" /><path
       class="st0"
       d="M352.9,6L352.9,6L107.4,6c-7.3,0-13.3,6-13.3,13.3v256.8h26.6V32.6h232.2v92.2h92.2v354.6   H120.7v-49.8H94.1v63.1c0,7.3,6,13.3,13.3,13.3h351c7.3,0,13.3-6,13.3-13.3V124.8L352.9,6z"
       id="XMLID_29_"
       style="fill:#808080;fill-opacity:1" /><rect
       class="st0"
       height="19.6"
       id="XMLID_28_"
       width="253.4"
       x="156.2"
       y="171.4"
       style="fill:#808080;fill-opacity:1" /><rect
       class="st0"
       height="19.6"
       id="XMLID_27_"
       width="213.3"
       x="156.2"
       y="209.5"
       style="fill:#808080;fill-opacity:1" /></g><g
     id="g4932"
     transform="matrix(0.46679448,0,0,0.46679448,253.60452,271.89857)"
     style="fill:#333333;fill-opacity:1"><g
       id="D_-_45_x2C__timmer_x2C__stopwatch_x2C__watch_x2C__time"
       style="fill:#333333;fill-opacity:1"><g
         id="g849"><path
           id="path4899"
           d="m 256,275.679 c -11.932,0 -21.638,9.707 -21.638,21.639 0,11.932 9.707,21.639 21.638,21.639 11.931,0 21.639,-9.707 21.639,-21.639 0,-11.932 -9.707,-21.639 -21.639,-21.639 z"
           inkscape:connector-curvature="0"
           style="fill:#333333;fill-opacity:1" /><path
           id="path4901"
           d="m 231.409,112.461 c 0.327,-0.043 0.654,-0.089 0.98,-0.13 7.829,-0.991 15.739,-1.496 23.61,-1.496 7.872,0 15.782,0.505 23.613,1.496 0.324,0.041 0.648,0.086 0.973,0.129 0.572,0.075 1.146,0.146 1.717,0.227 V 78.889 h -52.605 v 33.799 c 0.571,-0.081 1.141,-0.151 1.712,-0.227 z"
           inkscape:connector-curvature="0"
           style="fill:#333333;fill-opacity:1" /><path
           id="path4903"
           d="m 379.3985,297.3175 c 0,-68.042 -55.356,-123.398 -123.398,-123.398 -68.042,0 -123.399,55.356 -123.399,123.398 0,68.042 55.356,123.398 123.398,123.398 68.042,0 123.399,-55.356 123.399,-123.398 z m -56.278,-65.161 c 1.829,1.83 1.829,4.796 0,6.626 l -37.484,37.484 c -1.829,1.829 -4.796,1.829 -6.626,0 -0.915,-0.915 -1.372,-2.114 -1.372,-3.313 0,-1.199 0.457,-2.398 1.372,-3.313 l 37.483,-37.484 c 1.831,-1.83 4.798,-1.83 6.627,0 z m -98.129,65.161 c 0,-17.098 13.91,-31.009 31.009,-31.009 17.099,0 31.01,13.911 31.01,31.009 0,17.098 -13.911,31.01 -31.01,31.01 -17.099,0 -31.009,-13.912 -31.009,-31.01 z"
           inkscape:connector-curvature="0"
           style="fill:#333333;fill-opacity:1" /><path
           id="path4905"
           d="m 364.746,145.835 c 0.898,0.646 1.791,1.3 2.678,1.963 0.326,0.244 0.653,0.486 0.979,0.732 1.146,0.868 2.285,1.745 3.412,2.639 0.033,0.026 0.066,0.054 0.1,0.081 1.093,0.869 2.175,1.754 3.249,2.648 0.32,0.267 0.639,0.536 0.958,0.805 0.847,0.714 1.686,1.435 2.521,2.164 0.28,0.246 0.563,0.489 0.843,0.736 1.01,0.893 2.012,1.793 3.002,2.708 l 16.076,-20.733 -22.218,-17.226 -15.882,20.483 c 1.131,0.766 2.25,1.548 3.363,2.339 0.308,0.219 0.612,0.441 0.919,0.661 z"
           inkscape:connector-curvature="0"
           style="fill:#333333;fill-opacity:1" /><polygon
           id="polygon4907"
           points="188.38,69.518 225.012,69.518 286.988,69.518 323.62,69.518 323.62,37.571 188.38,37.571 "
           style="fill:#333333;fill-opacity:1" /><path
           id="path4909"
           d="m 379.742,170.625 v 0 c -8.737,-8.534 -18.361,-16.175 -28.605,-22.71 -19.894,-12.694 -41.743,-21.15 -64.941,-25.135 -19.891,-3.416 -40.5,-3.416 -60.39,0 -85.129,14.621 -146.917,88.025 -146.917,174.537 0,97.659 79.452,177.111 177.111,177.111 97.659,0 177.111,-79.452 177.111,-177.111 0,-48.084 -18.953,-93.077 -53.369,-126.692 z M 256,430.087 c -73.209,0 -132.77,-59.561 -132.77,-132.77 0,-73.209 59.561,-132.77 132.77,-132.77 73.209,0 132.77,59.561 132.77,132.77 0,73.209 -59.561,132.77 -132.77,132.77 z"
           inkscape:connector-curvature="0"
           style="fill:#333333;fill-opacity:1" /></g></g><g
       id="Layer_1-2"
       style="fill:#333333;fill-opacity:1" /></g></svg>