<?xml version="1.0" encoding="UTF-8" standalone="no"?>
<svg
   xmlns:dc="http://purl.org/dc/elements/1.1/"
   xmlns:cc="http://creativecommons.org/ns#"
   xmlns:rdf="http://www.w3.org/1999/02/22-rdf-syntax-ns#"
   xmlns:svg="http://www.w3.org/2000/svg"
   xmlns="http://www.w3.org/2000/svg"
   xmlns:sodipodi="http://sodipodi.sourceforge.net/DTD/sodipodi-0.dtd"
   xmlns:inkscape="http://www.inkscape.org/namespaces/inkscape"
   id="Layer_1"
   style="enable-background:new 0 0 512 512;"
   version="1.1"
   viewBox="0 0 512 512"
   xml:space="preserve"
   sodipodi:docname="pdf_privado.svg"
   inkscape:version="0.92.4 (5da689c313, 2019-01-14)"><metadata
     id="metadata845"><rdf:RDF><cc:Work
         rdf:about=""><dc:format>image/svg+xml</dc:format><dc:type
           rdf:resource="http://purl.org/dc/dcmitype/StillImage" /><dc:title></dc:title></cc:Work></rdf:RDF></metadata><defs
     id="defs843" /><sodipodi:namedview
     pagecolor="#ffffff"
     bordercolor="#666666"
     borderopacity="1"
     objecttolerance="10"
     gridtolerance="10"
     guidetolerance="10"
     inkscape:pageopacity="0"
     inkscape:pageshadow="2"
     inkscape:window-width="1920"
     inkscape:window-height="1017"
     id="namedview841"
     showgrid="false"
     inkscape:zoom="1"
     inkscape:cx="204.77932"
     inkscape:cy="226.49844"
     inkscape:window-x="-8"
     inkscape:window-y="-8"
     inkscape:window-maximized="1"
     inkscape:current-layer="Layer_1" /><style
     type="text/css"
     id="style831">
	.st0{fill:#11B24C;}
</style><g
     id="XMLID_26_"
     style="fill:#808080;fill-opacity:1"><path
       class="st0"
       d="M187.7,329h-11.4v51.3h11.4c5.6,0,10.1-1.9,13.4-5.7c3.3-3.8,5-8.7,5-14.6v-10.7   c0-5.9-1.7-10.7-5-14.5C197.8,330.9,193.3,329,187.7,329z"
       id="XMLID_156_"
       style="fill:#808080;fill-opacity:1" /><path
       class="st0"
       d="M365.6,285.9H40.3v133.9h276.3L365.6,285.9z M143.9,357.2c-4.4,4-10.4,5.9-18.1,5.9h-15.1v26.5   H99v-70h26.8c7.7,0,13.8,2,18.1,6c4.4,4,6.6,9.2,6.6,15.7C150.5,348,148.3,353.2,143.9,357.2z M217.7,360c0,8.8-2.8,15.9-8.3,21.4   c-5.6,5.5-12.8,8.3-21.7,8.3h-23.1v-70h23.1c8.9,0,16.1,2.8,21.7,8.3c5.6,5.5,8.3,12.7,8.3,21.4V360z M278.3,329h-33.1v21.4h28.2   v9.4h-28.2v29.9h-11.7v-70h44.8V329z"
       id="XMLID_56_"
       style="fill:#808080;fill-opacity:1" /><path
       class="st0"
       d="M125.8,329h-15.1v24.7h15.1c4.3,0,7.6-1.2,9.8-3.5c2.2-2.3,3.3-5.2,3.3-8.8s-1.1-6.5-3.3-8.9   C133.4,330.2,130.1,329,125.8,329z"
       id="XMLID_55_"
       style="fill:#808080;fill-opacity:1" /><path
       class="st0"
       d="M352.9,6L352.9,6L107.4,6c-7.3,0-13.3,6-13.3,13.3v256.8h26.6V32.6h232.2v92.2h92.2v354.6   H120.7v-49.8H94.1v63.1c0,7.3,6,13.3,13.3,13.3h351c7.3,0,13.3-6,13.3-13.3V124.8L352.9,6z"
       id="XMLID_29_"
       style="fill:#808080;fill-opacity:1" /><rect
       class="st0"
       height="19.6"
       id="XMLID_28_"
       width="253.4"
       x="156.2"
       y="171.4"
       style="fill:#808080;fill-opacity:1" /><rect
       class="st0"
       height="19.6"
       id="XMLID_27_"
       width="213.3"
       x="156.2"
       y="209.5"
       style="fill:#808080;fill-opacity:1" /></g><g
     id="Page-1"
     style="fill:#333333;fill-rule:evenodd;stroke:none;stroke-width:1"
     transform="matrix(7.5185185,0,0,7.5185185,252.94444,266.94444)"><g
       id="icon-114-lock"
       style="fill:#333333"><path
         id="lock"
         d="m 16,21.914647 v 2.594348 C 16,24.780169 16.231934,25 16.5,25 16.776142,25 17,24.772119 17,24.508995 V 21.914647 C 17.582596,21.708729 18,21.153109 18,20.5 18,19.671573 17.328427,19 16.5,19 15.671573,19 15,19.671573 15,20.5 c 0,0.653109 0.417404,1.208729 1,1.414647 z M 9,14.000013 V 10.499235 C 9,6.3567048 12.357864,3 16.5,3 20.633707,3 24,6.3575219 24,10.499235 v 3.500778 c 1.659147,0.0047 3,1.350304 3,3.009465 v 9.981044 C 27,28.663369 25.65292,30 23.991212,30 H 9.008788 C 7.3455902,30 6,28.652611 6,26.990522 V 17.009478 C 6,15.339581 7.3423335,14.004715 9,14.000013 Z M 12,14 V 10.500854 C 12,8.0092478 14.014719,6 16.5,6 18.980224,6 21,8.0151008 21,10.500854 V 14 Z"
         inkscape:connector-curvature="0"
         style="fill:#333333" /></g></g></svg>