<?xml version="1.0" encoding="UTF-8" standalone="no"?>
<svg
   xmlns:dc="http://purl.org/dc/elements/1.1/"
   xmlns:cc="http://creativecommons.org/ns#"
   xmlns:rdf="http://www.w3.org/1999/02/22-rdf-syntax-ns#"
   xmlns:svg="http://www.w3.org/2000/svg"
   xmlns="http://www.w3.org/2000/svg"
   xmlns:sodipodi="http://sodipodi.sourceforge.net/DTD/sodipodi-0.dtd"
   xmlns:inkscape="http://www.inkscape.org/namespaces/inkscape"
   id="Layer_1"
   version="1.1"
   viewBox="0 0 48 48"
   xml:space="preserve"
   sodipodi:docname="pdf_submetido_privado.svg"
   inkscape:version="0.92.4 (5da689c313, 2019-01-14)"
   width="48"
   height="48"><metadata
     id="metadata845"><rdf:RDF><cc:Work
         rdf:about=""><dc:format>image/svg+xml</dc:format><dc:type
           rdf:resource="http://purl.org/dc/dcmitype/StillImage" /><dc:title></dc:title></cc:Work></rdf:RDF></metadata><defs
     id="defs843" /><sodipodi:namedview
     pagecolor="#ffffff"
     bordercolor="#666666"
     borderopacity="1"
     objecttolerance="10"
     gridtolerance="10"
     guidetolerance="10"
     inkscape:pageopacity="0"
     inkscape:pageshadow="2"
     inkscape:window-width="1920"
     inkscape:window-height="1017"
     id="namedview841"
     showgrid="false"
     inkscape:zoom="2.8284271"
     inkscape:cx="24.176526"
     inkscape:cy="34.755108"
     inkscape:window-x="-8"
     inkscape:window-y="-8"
     inkscape:window-maximized="1"
     inkscape:current-layer="Layer_1" /><style
     type="text/css"
     id="style831">
	.st0{fill:#11B24C;}
</style><g
     id="g834"
     style="fill:#ff0000"><g
       transform="matrix(0.096,0,0,0.096,-0.576,-0.576)"
       style="fill:#ff0000;fill-opacity:1"
       id="XMLID_26_"><path
         inkscape:connector-curvature="0"
         style="fill:#ff0000;fill-opacity:1"
         id="XMLID_156_"
         d="m 187.7,329 h -11.4 v 51.3 h 11.4 c 5.6,0 10.1,-1.9 13.4,-5.7 3.3,-3.8 5,-8.7 5,-14.6 v -10.7 c 0,-5.9 -1.7,-10.7 -5,-14.5 -3.3,-3.9 -7.8,-5.8 -13.4,-5.8 z"
         class="st0" /><path
         inkscape:connector-curvature="0"
         style="fill:#ff0000;fill-opacity:1"
         id="XMLID_56_"
         d="M 365.6,285.9 H 40.3 v 133.9 h 276.3 z m -221.7,71.3 c -4.4,4 -10.4,5.9 -18.1,5.9 h -15.1 v 26.5 H 99 v -70 h 26.8 c 7.7,0 13.8,2 18.1,6 4.4,4 6.6,9.2 6.6,15.7 0,6.7 -2.2,11.9 -6.6,15.9 z m 73.8,2.8 c 0,8.8 -2.8,15.9 -8.3,21.4 -5.6,5.5 -12.8,8.3 -21.7,8.3 h -23.1 v -70 h 23.1 c 8.9,0 16.1,2.8 21.7,8.3 5.6,5.5 8.3,12.7 8.3,21.4 z m 60.6,-31 h -33.1 v 21.4 h 28.2 v 9.4 h -28.2 v 29.9 h -11.7 v -70 h 44.8 z"
         class="st0" /><path
         inkscape:connector-curvature="0"
         style="fill:#ff0000;fill-opacity:1"
         id="XMLID_55_"
         d="m 125.8,329 h -15.1 v 24.7 h 15.1 c 4.3,0 7.6,-1.2 9.8,-3.5 2.2,-2.3 3.3,-5.2 3.3,-8.8 0,-3.6 -1.1,-6.5 -3.3,-8.9 -2.2,-2.3 -5.5,-3.5 -9.8,-3.5 z"
         class="st0" /><path
         inkscape:connector-curvature="0"
         style="fill:#ff0000;fill-opacity:1"
         id="XMLID_29_"
         d="M 352.9,6 V 6 H 107.4 c -7.3,0 -13.3,6 -13.3,13.3 v 256.8 h 26.6 V 32.6 h 232.2 v 92.2 h 92.2 V 479.4 H 120.7 V 429.6 H 94.1 v 63.1 c 0,7.3 6,13.3 13.3,13.3 h 351 c 7.3,0 13.3,-6 13.3,-13.3 V 124.8 Z"
         class="st0" /><rect
         style="fill:#ff0000;fill-opacity:1"
         y="171.39999"
         x="156.2"
         width="253.39999"
         id="XMLID_28_"
         height="19.6"
         class="st0" /><rect
         style="fill:#ff0000;fill-opacity:1"
         y="209.5"
         x="156.2"
         width="213.3"
         id="XMLID_27_"
         height="19.6"
         class="st0" /></g></g><g
     id="Page-1"
     style="fill:#333333;fill-rule:evenodd;stroke:none;stroke-width:1"
     transform="matrix(0.72177778,0,0,0.72177778,23.706333,25.050667)"><g
       id="icon-114-lock"
       style="fill:#333333"><path
         id="lock"
         d="m 16,21.914647 v 2.594348 C 16,24.780169 16.231934,25 16.5,25 16.776142,25 17,24.772119 17,24.508995 V 21.914647 C 17.582596,21.708729 18,21.153109 18,20.5 18,19.671573 17.328427,19 16.5,19 15.671573,19 15,19.671573 15,20.5 c 0,0.653109 0.417404,1.208729 1,1.414647 z M 9,14.000013 V 10.499235 C 9,6.3567048 12.357864,3 16.5,3 20.633707,3 24,6.3575219 24,10.499235 v 3.500778 c 1.659147,0.0047 3,1.350304 3,3.009465 v 9.981044 C 27,28.663369 25.65292,30 23.991212,30 H 9.008788 C 7.3455902,30 6,28.652611 6,26.990522 V 17.009478 C 6,15.339581 7.3423335,14.004715 9,14.000013 Z M 12,14 V 10.500854 C 12,8.0092478 14.014719,6 16.5,6 18.980224,6 21,8.0151008 21,10.500854 V 14 Z"
         inkscape:connector-curvature="0"
         style="fill:#333333" /></g></g></svg>