<?xml version="1.0" encoding="UTF-8" standalone="no"?>
<svg
   xmlns:dc="http://purl.org/dc/elements/1.1/"
   xmlns:cc="http://creativecommons.org/ns#"
   xmlns:rdf="http://www.w3.org/1999/02/22-rdf-syntax-ns#"
   xmlns:svg="http://www.w3.org/2000/svg"
   xmlns="http://www.w3.org/2000/svg"
   xmlns:sodipodi="http://sodipodi.sourceforge.net/DTD/sodipodi-0.dtd"
   xmlns:inkscape="http://www.inkscape.org/namespaces/inkscape"
   id="Layer_1"
   version="1.1"
   viewBox="0 0 48 48"
   xml:space="preserve"
   sodipodi:docname="público.svg"
   inkscape:version="0.92.4 (5da689c313, 2019-01-14)"
   width="48"
   height="48"><metadata
     id="metadata845"><rdf:RDF><cc:Work
         rdf:about=""><dc:format>image/svg+xml</dc:format><dc:type
           rdf:resource="http://purl.org/dc/dcmitype/StillImage" /><dc:title /></cc:Work></rdf:RDF></metadata><defs
     id="defs843" /><sodipodi:namedview
     pagecolor="#ffffff"
     bordercolor="#666666"
     borderopacity="1"
     objecttolerance="10"
     gridtolerance="10"
     guidetolerance="10"
     inkscape:pageopacity="0"
     inkscape:pageshadow="2"
     inkscape:window-width="1920"
     inkscape:window-height="1017"
     id="namedview841"
     showgrid="false"
     inkscape:zoom="11.313708"
     inkscape:cx="-1.6579379"
     inkscape:cy="29.481282"
     inkscape:window-x="-8"
     inkscape:window-y="-8"
     inkscape:window-maximized="1"
     inkscape:current-layer="Layer_1" /><style
     type="text/css"
     id="style831">
	.st0{fill:#11B24C;}
</style><path
     style="fill:#228b22;fill-rule:evenodd;stroke:none;stroke-width:1.57296467;fill-opacity:1"
     d="m 23.999999,-1e-7 c -6.515433,0 -11.797809,5.2800295 -11.797809,11.7960831 v 11.035715 c -2.607451,0.0074 -4.717743,2.108333 -4.717743,4.735022 V 43.266705 C 7.484447,45.881113 9.599862,48 12.216015,48 h 23.56797 c 2.613809,0 4.731568,-2.101966 4.731568,-4.733295 V 27.56682 c 0,-2.609802 -2.107964,-4.72759 -4.717743,-4.735022 H 31.07834 16.921659 V 11.797811 c 0,-3.9192079 3.169081,-7.078341 7.07834,-7.078341 3.901305,0 7.078341,3.1683391 7.078341,7.078341 v 5.510945 h 4.71947 V 11.796083 C 35.79781,5.2813146 30.502175,-9.9999999e-8 23.999999,-10e-8 Z m 0,30.6981561 c 1.303087,10e-7 2.358872,1.055785 2.358872,2.358872 0,1.027317 -0.656178,1.901905 -1.572581,2.225806 v 4.080069 c 0,0.413885 -0.351929,0.772466 -0.786291,0.772466 -0.421658,0 -0.78629,-0.345919 -0.78629,-0.772466 v -4.080069 c -0.916403,-0.323901 -1.572581,-1.198489 -1.572581,-2.225806 0,-1.303087 1.055785,-2.358872 2.358871,-2.358872 z"
     id="lock"
     inkscape:connector-curvature="0" /></svg>